<svg width="60" height="74" viewBox="0 0 60 74" fill="none" xmlns="http://www.w3.org/2000/svg">
<path d="M49.66 0.5C49.36 0.18 48.94 0 48.5 0H11.5C11.06 0 10.64 0.18 10.34 0.5C10.04 0.82 9.87998 1.25 9.89998 1.69C10.88 19.62 2.97998 30.01 1.12998 36.53C-2.21002 48.28 3.23998 63.45 10.88 73.37C11.18 73.76 11.65 73.99 12.15 73.99H47.85C48.35 73.99 48.81 73.76 49.12 73.37C56.39 63.93 62.09 48.13 58.86 36.54C57.04 30 49.11 19.71 50.1 1.7C50.12 1.26 49.96 0.82 49.66 0.5ZM52.78 30.32C52.97 30.73 53.17 31.13 53.36 31.52C54.11 33.08 54.78 34.48 55.32 35.98C46.16 39.44 37.54 46.92 30 52.68C22.43 46.9 13.83 39.44 4.67998 35.98C5.21998 34.48 5.88998 33.08 6.63998 31.53C6.82998 31.14 7.01998 30.74 7.21998 30.33C14.22 33.65 22.06 35.4 30 35.4C37.94 35.39 45.78 33.64 52.78 30.32ZM3.80998 39.09C12.48 42.43 20.7 49.64 28.4 55.5V70.79H12.94C4.69998 59.71 2.22998 47.14 3.80998 39.09ZM47.06 70.78H31.6V55.5C39.35 49.6 47.52 42.44 56.16 39.1C58.07 49.26 53.1 62.57 47.06 70.78ZM51.07 26.41C51.2 26.73 51.33 27.06 51.47 27.39C44.88 30.53 37.49 32.18 30 32.18C22.51 32.18 15.12 30.53 8.52998 27.39C8.66998 27.06 8.79998 26.74 8.92998 26.41C11.93 18.77 13.36 10.98 13.17 3.22H46.83C46.64 10.97 48.07 18.77 51.07 26.41Z" fill="#FF699F"/>
</svg>
